<mxfile host="65bd71144e">
    <diagram name="Page-1" id="8NQKQLPwKNeTstGFi3XP">
        <mxGraphModel dx="1628" dy="648" grid="1" gridSize="10" guides="1" tooltips="1" connect="1" arrows="1" fold="1" page="1" pageScale="1" pageWidth="850" pageHeight="1100" math="0" shadow="0">
            <root>
                <mxCell id="0"/>
                <mxCell id="1" parent="0"/>
                <mxCell id="IkJLr_mQiHyRIqAOa4CK-1" value="Instruction Fetch" style="rounded=0;whiteSpace=wrap;html=1;" parent="1" vertex="1">
                    <mxGeometry x="50" y="260" width="120" height="70" as="geometry"/>
                </mxCell>
                <mxCell id="IkJLr_mQiHyRIqAOa4CK-2" value="Instrucction Decode" style="rounded=0;whiteSpace=wrap;html=1;" parent="1" vertex="1">
                    <mxGeometry x="210" y="220" width="120" height="60" as="geometry"/>
                </mxCell>
                <mxCell id="IkJLr_mQiHyRIqAOa4CK-3" value="ALU0" style="rounded=0;whiteSpace=wrap;html=1;" parent="1" vertex="1">
                    <mxGeometry x="365" y="80" width="120" height="60" as="geometry"/>
                </mxCell>
                <mxCell id="IkJLr_mQiHyRIqAOa4CK-4" value="Arithmetic Registers" style="rounded=0;whiteSpace=wrap;html=1;" parent="1" vertex="1">
                    <mxGeometry x="380" y="200" width="340" height="100" as="geometry"/>
                </mxCell>
                <mxCell id="IkJLr_mQiHyRIqAOa4CK-5" value="Far Registers" style="rounded=0;whiteSpace=wrap;html=1;" parent="1" vertex="1">
                    <mxGeometry x="760" y="200" width="140" height="100" as="geometry"/>
                </mxCell>
                <mxCell id="IkJLr_mQiHyRIqAOa4CK-6" value="Load Store Unit" style="rounded=0;whiteSpace=wrap;html=1;" parent="1" vertex="1">
                    <mxGeometry x="400" y="360" width="120" height="60" as="geometry"/>
                </mxCell>
                <mxCell id="IkJLr_mQiHyRIqAOa4CK-7" value="L0 Data Cache" style="rounded=0;whiteSpace=wrap;html=1;" parent="1" vertex="1">
                    <mxGeometry x="480" y="480" width="230" height="60" as="geometry"/>
                </mxCell>
                <mxCell id="2" value="L0 Instruction Cache" style="rounded=0;whiteSpace=wrap;html=1;" vertex="1" parent="1">
                    <mxGeometry x="110" y="480" width="230" height="60" as="geometry"/>
                </mxCell>
            </root>
        </mxGraphModel>
    </diagram>
</mxfile>